<?xml version="1.0" encoding="utf-8"?>
<!-- Generator: Adobe Illustrator 19.0.0, SVG Export Plug-In . SVG Version: 6.00 Build 0)  -->
<svg version="1.1" id="Capa_1" xmlns="http://www.w3.org/2000/svg" xmlns:xlink="http://www.w3.org/1999/xlink" x="0px" y="0px"
	 viewBox="-28 119.4 554.6 554.6" style="enable-background:new -28 119.4 554.6 554.6;" xml:space="preserve">
<style type="text/css">
	.st0{fill:#7F7F7F;}
</style>
<g>
	<g>
		<path class="st0" d="M-28,607.1v38.2v19.1H0.7v-19.1h210.4v19.1h28.7v-19.1v-38.2V482.8H-28V607.1z M48.5,521h124.3v9.6H48.5V521z
			"/>
		<path class="st0" d="M-28,473.2h267.8V128.9H-28V473.2z M191.9,267.6c0-2.6,2.1-4.8,4.8-4.8s4.8,2.1,4.8,4.8v105.2
			c0,2.6-2.1,4.8-4.8,4.8s-4.8-2.1-4.8-4.8V267.6z"/>
		<path class="st0" d="M258.9,607.1v38.2v19.1h28.7v-19.1h210.4v19.1h28.7v-19.1v-38.2V492.3H258.9L258.9,607.1L258.9,607.1z
			 M335.4,521h124.3v9.6H335.4V521z"/>
		<rect x="287.6" y="339.3" class="st0" width="153" height="105.2"/>
		<path class="st0" d="M258.9,473.2h267.8V310.6H258.9V473.2z M487.2,401.5c-6.6,0-12-5.4-12-12s5.4-12,12-12c6.6,0,12,5.4,12,12
			S493.8,401.5,487.2,401.5z M469.2,329.8h38.2v28.7h-38.2V329.8z M278,329.8h172.1v124.3H278V329.8z"/>
		<path class="st0" d="M258.9,291.5h267.8V128.9H258.9V291.5z M487.2,148.1c6.6,0,12,5.4,12,12c0,6.6-5.4,12-12,12s-12-5.4-12-12
			C475.2,153.4,480.6,148.1,487.2,148.1z M487.2,186.3c6.6,0,12,5.4,12,12s-5.4,12-12,12s-12-5.4-12-12S480.6,186.3,487.2,186.3z
			 M278,148.1h172.1v124.3H278V148.1z"/>
		<rect x="287.6" y="157.6" class="st0" width="153" height="105.2"/>
	</g>
</g>
</svg>
