<?xml version="1.0" encoding="utf-8"?>
<!-- Generator: Adobe Illustrator 19.0.0, SVG Export Plug-In . SVG Version: 6.00 Build 0)  -->
<svg version="1.1" id="Capa_1" xmlns="http://www.w3.org/2000/svg" xmlns:xlink="http://www.w3.org/1999/xlink" x="0px" y="0px"
	 viewBox="-56 147.6 498.4 498.4" style="enable-background:new -56 147.6 498.4 498.4;" xml:space="preserve">
<style type="text/css">
	.st0{fill:#7F7F7F;}
</style>
<g>
	<g>
		<path class="st0" d="M102.7,366.2l125.7,21c7.2,1,13.4-3.3,14.8-10.5l0.5-3.3c1-7.2-3.3-13.4-10.5-14.8l-125.7-21
			c-7.2-1-13.4,3.8-14.8,11l-0.5,3.3C91.2,358.6,96,364.8,102.7,366.2z"/>
		<path class="st0" d="M420.2,524.5c-49.2,30.1-95.6,47.3-138.2,55.5l13.9-116.2l5.3-45.4l0,0c32-177.4,66.9-194.6,70.8-196
			c0.5,0,2.4-1,3.8,1l-0.5-0.5l31.6-28.7c-7.2-7.6-24.9-19.1-46.4-12.4c-27.3,8.1-67.4,41.1-100.4,230.5l-117.1-19.6l-28.7-4.8
			l-17.7-3.3l-4.3-1L52,533.6c-50.7-33-79.4-70.3-82.2-73.6c-4.8-6.2-13.9-7.6-20.1-2.9c-6.2,4.8-7.7,13.9-2.9,20.1
			c27.3,36.3,86.1,88.5,161.1,115.7c38.2,13.9,77,21,116.2,21c69.3,0,140.1-22,211.3-65.5c6.7-4.3,9.1-12.9,4.8-19.6
			C436,522.6,427.4,520.7,420.2,524.5z M230.4,586.2c-50.2,1.4-94.7-10-131.5-26.3l31.6-121L245.7,458L230.4,586.2z"/>
	</g>
</g>
</svg>
