<?xml version="1.0" encoding="utf-8"?>
<!-- Generator: Adobe Illustrator 19.2.1, SVG Export Plug-In . SVG Version: 6.00 Build 0)  -->
<svg version="1.1" id="Capa_1" xmlns="http://www.w3.org/2000/svg" xmlns:xlink="http://www.w3.org/1999/xlink" x="0px" y="0px"
	 viewBox="0 0 21.8 21.8" style="enable-background:new 0 0 21.8 21.8;" xml:space="preserve">
<g>
	<g>
		<path d="M15.4,8.4c0-4-3.2-7.2-7.2-7.2C4.2,1.2,1,4.4,1,8.4s3.2,7.2,7.2,7.2C12.2,15.6,15.4,12.4,15.4,8.4z M8.2,13.8
			c-3,0-5.4-2.4-5.4-5.4S5.2,3,8.2,3c3,0,5.4,2.4,5.4,5.4S11.2,13.8,8.2,13.8z"/>
		<path d="M19.7,17.3l-4.4-4.4c-0.7,1-1.5,1.9-2.5,2.5l4.4,4.4c0.7,0.7,1.8,0.7,2.5,0C20.4,19.2,20.4,18,19.7,17.3z"/>
	</g>
</g>
</svg>
