<?xml version="1.0" encoding="utf-8"?>
<!-- Generator: Adobe Illustrator 19.0.0, SVG Export Plug-In . SVG Version: 6.00 Build 0)  -->
<svg version="1.1" id="Capa_1" xmlns="http://www.w3.org/2000/svg" xmlns:xlink="http://www.w3.org/1999/xlink" x="0px" y="0px"
	 viewBox="-49 141.4 511.6 511.6" style="enable-background:new -49 141.4 511.6 511.6;" xml:space="preserve">
<style type="text/css">
	.st0{fill:#333333;}
</style>
<g>
	<g>
		<path class="st0" d="M252.9,466.4c30.9-13,55.3-30.8,73.2-53.2c17.9-22.5,26.8-46.9,26.8-73.4s-8.9-50.9-26.8-73.4
			s-42.3-40.2-73.2-53.2s-64.6-19.6-100.9-19.6c-36.4,0-70,6.5-100.9,19.6c-30.9,13-55.3,30.8-73.2,53.2
			c-18,22.4-26.9,46.9-26.9,73.4c0,22.6,6.8,44,20.3,64S3.4,440.6,27,454.3c-1.9,4.6-3.9,8.8-5.9,12.6c-2,3.8-4.4,7.5-7.1,11
			c-2.8,3.5-4.9,6.3-6.4,8.3s-4,4.8-7.4,8.4s-5.6,6-6.6,7.1c0-0.2-0.4,0.2-1.1,1.3c-0.8,1-1.2,1.5-1.3,1.4s-0.5,0.4-1.1,1.4
			c-0.7,1-1,1.6-1,1.6l-0.7,1.4c-0.3,0.6-0.5,1.1-0.6,1.7c-0.1,0.6-0.1,1.2-0.1,1.9s0.1,1.3,0.3,1.9c0.4,2.5,1.5,4.5,3.3,6
			s3.8,2.3,5.9,2.3h0.9c9.5-1.3,17.7-2.9,24.6-4.6c29.3-7.6,55.8-19.8,79.4-36.5c17.1,3,33.9,4.6,50.2,4.6
			C188.4,485.9,222,479.4,252.9,466.4z"/>
		<path class="st0" d="M442.4,476.9c13.5-19.9,20.3-41.2,20.3-64.1c0-23.4-7.1-45.3-21.4-65.7s-33.7-37.3-58.2-50.8
			c4.4,14.3,6.6,28.7,6.6,43.4c0,25.5-6.4,49.7-19.1,72.5c-12.8,22.8-31,43-54.8,60.5c-22.1,16-47.2,28.3-75.4,36.8
			c-28.2,8.6-57.6,12.8-88.2,12.8c-5.7,0-14.1-0.4-25.1-1.1c38.3,25.1,83.2,37.7,134.8,37.7c16.4,0,33.1-1.5,50.3-4.6
			c23.6,16.8,50.1,28.9,79.4,36.5c6.9,1.7,15,3.2,24.6,4.6c2.3,0.2,4.4-0.5,6.3-2s3.1-3.6,3.7-6.3c-0.1-1.1,0-1.8,0.3-1.9
			c0.3-0.1,0.2-0.7-0.1-1.9c-0.4-1.1-0.6-1.7-0.6-1.7l-0.7-1.4c-0.2-0.4-0.5-0.9-1-1.6c-0.5-0.7-0.9-1.1-1.1-1.4
			c-0.3-0.3-0.7-0.8-1.3-1.4c-0.6-0.7-1-1.1-1.1-1.3c-1-1.1-3.1-3.5-6.6-7.1c-3.4-3.6-5.9-6.4-7.4-8.4s-3.7-4.8-6.4-8.3
			c-2.8-3.5-5.1-7.2-7.1-11s-3.9-8-5.9-12.6C410.2,513.6,428.8,496.8,442.4,476.9z"/>
	</g>
</g>
</svg>
