<?xml version="1.0" encoding="utf-8"?>
<!-- Generator: Adobe Illustrator 19.0.0, SVG Export Plug-In . SVG Version: 6.00 Build 0)  -->
<svg version="1.1" id="Capa_1" xmlns="http://www.w3.org/2000/svg" xmlns:xlink="http://www.w3.org/1999/xlink" x="0px" y="0px"
	 viewBox="-203 294.5 204.5 204.5" style="enable-background:new -203 294.5 204.5 204.5;" xml:space="preserve">
<style type="text/css">
	.st0{fill:#7F7F7F;}
</style>
<g>
	<g>
		<path class="st0" d="M-16.2,399.6v-57.2c0-4-3.3-7.3-7.3-7.3c-4,0-7.3,3.3-7.3,7.3v12.8c-4-6.3-9.8-12-17.4-16.8
			c-14.2-9-32.8-14-52.6-14c-19.8,0-38.4,5-52.6,14c-7.5,4.8-13.4,10.5-17.4,16.8v-12.8c0-4-3.3-7.3-7.3-7.3s-7.3,3.3-7.3,7.3v57.2
			c-9.8,0.3-17.8,8.3-17.8,18.2v14.5v4.4V482c0,4,3.3,7.3,7.3,7.3s7.3-3.3,7.3-7.3v-27.4c1.2,0.2,2.4,0.4,3.7,0.4h168
			c1.3,0,2.5-0.1,3.7-0.4V482c0,4,3.3,7.3,7.3,7.3c4,0,7.3-3.3,7.3-7.3v-45.3v-4.4v-14.5C1.5,407.9-6.4,399.8-16.2,399.6z
			 M-100.7,339c29.2,0,54.5,12.9,60.3,29.4H-161C-155.2,351.9-129.9,339-100.7,339z M-30.8,382.9v16.6h-139.9v-16.6H-30.8z
			 M-13,432.3v4.4c0,2.1-1.7,3.7-3.7,3.7h-168c-2,0-3.7-1.7-3.7-3.7v-4.4v-14.5c0-2,1.7-3.7,3.7-3.7h168c2,0,3.7,1.7,3.7,3.7
			L-13,432.3L-13,432.3z"/>
		<path class="st0" d="M-178,326.4c6.1,0,11.1-5,11.1-11.1c0-6.1-5-11.1-11.1-11.1c-6.1,0-11.1,5-11.1,11.1
			C-189.1,321.5-184.1,326.4-178,326.4z"/>
		<path class="st0" d="M-23.5,326.4c6.1,0,11.1-5,11.1-11.1c0-6.1-5-11.1-11.1-11.1c-6.1,0-11.1,5-11.1,11.1
			C-34.6,321.5-29.6,326.4-23.5,326.4z"/>
	</g>
</g>
</svg>
