<?xml version="1.0" encoding="utf-8"?>
<!-- Generator: Adobe Illustrator 19.2.1, SVG Export Plug-In . SVG Version: 6.00 Build 0)  -->
<svg version="1.1" id="Capa_1" xmlns="http://www.w3.org/2000/svg" xmlns:xlink="http://www.w3.org/1999/xlink" x="0px" y="0px"
	 viewBox="0 0 512 379" style="enable-background:new 0 0 512 379;" xml:space="preserve">
<style type="text/css">
	.st0{fill:#7F7F7F;}
</style>
<g>
	<path class="st0" d="M312.2,340.7H273V149.9h151.6c9.4,0,17-7.6,17-17V48.5c0-9.4-7.6-17-17-17H87.3c-9.4,0-17,7.6-17,17v84.3
		c0,9.4,7.6,17,17,17H239v190.8h-39.2c-9.4,0-17,7.6-17,17s7.6,17,17,17h112.5c9.4,0,17-7.6,17-17
		C329.3,348.4,321.6,340.7,312.2,340.7z M104.4,65.6h303.3v50.3H104.4V65.6z"/>
	<path class="st0" d="M0,357.8c0,9.4,7.6,17,17,17s17-7.6,17-17v-95.4h106.5v95.4c0,9.4,7.6,17,17,17s17-7.6,17-17V189.1
		c0-9.4-7.6-17-17-17H34.1V20.4c0-9.4-7.6-17-17-17S0,11,0,20.4V357.8z M34.1,206.1h106.5v22.2H34.1V206.1z"/>
	<path class="st0" d="M337.4,357.8c0,9.4,7.6,17,17,17s17-7.6,17-17v-95.4h106.5v95.4c0,9.4,7.6,17,17,17s17-7.6,17-17V20.4
		c0-9.4-7.6-17-17-17s-17,7.6-17,17V172H354.4c-9.4,0-17,7.6-17,17V357.8z M371.4,228.3v-22.2h106.5v22.2H371.4z"/>
</g>
</svg>
